<?xml version="1.0" encoding="UTF-8"?>
<svg width="339px" height="398px" viewBox="0 0 339 398" version="1.1" xmlns="http://www.w3.org/2000/svg" xmlns:xlink="http://www.w3.org/1999/xlink">
    <!-- Generator: Sketch 50.2 (55047) - http://www.bohemiancoding.com/sketch -->
    <title>Group 2</title>
    <desc>Created with Sketch.</desc>
    <defs>
        <path d="M117.84169,60.5571768 L177.914696,159.22237 L38.6360079,159.22237 L98.7090145,60.5571768 C101.925815,55.2738344 108.816543,53.5985713 114.099885,56.815372 C115.628129,57.7458543 116.911208,59.0289327 117.84169,60.5571768 Z" id="path-1"></path>
        <path d="M117.84169,60.5571768 L177.914696,159.22237 L38.6360079,159.22237 L98.7090145,60.5571768 C101.925815,55.2738344 108.816543,53.5985713 114.099885,56.815372 C115.628129,57.7458543 116.911208,59.0289327 117.84169,60.5571768 Z" id="path-2"></path>
        <path d="M230.443883,320.028646 L241.575097,339.484805 C242.672133,341.402305 242.007016,343.84607 240.089515,344.943106 C239.484693,345.289135 238.799968,345.471164 238.103156,345.471164 L208.896844,345.471164 C206.687705,345.471164 204.896844,343.680303 204.896844,341.471164 C204.896844,340.774352 205.078873,340.089628 205.424903,339.484805 L216.556117,320.028646 C218.750189,316.193646 223.637718,314.863411 227.472719,317.057483 C228.710153,317.765441 229.735924,318.791212 230.443883,320.028646 Z" id="path-3"></path>
    </defs>
    <g id="Page-1" stroke="none" stroke-width="1" fill="none" fill-rule="evenodd">
        <g id="Artboard" transform="translate(-131.000000, -39.000000)">
            <g id="Group-2" transform="translate(77.000000, -3.000000)">
                <g id="Group" transform="translate(0.000000, 1.000000)">
                    <path d="M120.714435,42.9273274 L195.551131,166.80259 L21.9117089,166.80259 L96.7484053,42.9273274 C100.746556,36.3092911 109.352676,34.1854542 115.970713,38.183605 C117.91304,39.3570221 119.541018,40.9850002 120.714435,42.9273274 Z" id="Triangle-2" stroke="#FFFFFF" fill="#FFFFFF" transform="translate(108.731420, 101.483567) rotate(-31.000000) translate(-108.731420, -101.483567) "></path>
                    <g id="Triangle-2" transform="translate(108.275352, 107.201228) rotate(-31.000000) translate(-108.275352, -107.201228) ">
                        <use fill="#FFFFFF" fill-rule="evenodd" style="mix-blend-mode: luminosity;" xlink:href="#path-1"></use>
                        <use stroke="#FFFFFF" stroke-width="0.8" xlink:href="#path-1"></use>
                    </g>
                </g>
                <g id="Group" transform="translate(337.500000, 101.500000) scale(-1, 1) translate(-337.500000, -101.500000) translate(229.000000, 0.000000)">
                    <path d="M120.714435,42.9273274 L195.551131,166.80259 L21.9117089,166.80259 L96.7484053,42.9273274 C100.746556,36.3092911 109.352676,34.1854542 115.970713,38.183605 C117.91304,39.3570221 119.541018,40.9850002 120.714435,42.9273274 Z" id="Triangle-2" stroke="#FFFFFF" fill="#FFFFFF" transform="translate(108.731420, 101.483567) rotate(-31.000000) translate(-108.731420, -101.483567) "></path>
                    <g id="Triangle-2" transform="translate(108.275352, 107.201228) rotate(-31.000000) translate(-108.275352, -107.201228) ">
                        <use fill="#FFFFFF" fill-rule="evenodd" style="mix-blend-mode: luminosity;" xlink:href="#path-2"></use>
                        <use stroke="#FFFFFF" stroke-width="0.8" xlink:href="#path-2"></use>
                    </g>
                </g>
                <ellipse id="Oval" stroke="#FFFFFF" fill="#FFFFFF" cx="223.5" cy="270" rx="168.5" ry="169"></ellipse>
                <path d="M92.7120946,207.5 L106.245414,297.5 L191.754586,297.5 L205.287905,207.5 L92.7120946,207.5 Z" id="Rectangle" stroke="#000000" stroke-width="15" fill="#FFFFFF"></path>
                <path d="M242.712095,207.5 L256.245414,297.5 L341.754586,297.5 L355.287905,207.5 L242.712095,207.5 Z" id="Rectangle" stroke="#000000" stroke-width="15" fill="#FFFFFF"></path>
                <path d="M269.44171,249.77074 C271.254021,250.294317 273.15923,250.573514 275.125,250.573514 C284.949076,250.573514 293.260586,243.600351 296.023369,234 C304.685825,236.581346 311,244.587014 311,254.063012 C311,265.626191 301.59798,275 290,275 C278.40202,275 269,265.626191 269,254.063012 C269,252.591885 269.152183,251.156196 269.44171,249.77074 Z" id="Combined-Shape" fill="#000000"></path>
                <path d="M137.44171,250.77074 C139.254021,251.294317 141.15923,251.573514 143.125,251.573514 C152.949076,251.573514 161.260586,244.600351 164.023369,235 C172.685825,237.581346 179,245.587014 179,255.063012 C179,266.626191 169.59798,276 158,276 C146.40202,276 137,266.626191 137,255.063012 C137,253.591885 137.152183,252.156196 137.44171,250.77074 Z" id="Combined-Shape" fill="#000000"></path>
                <g id="Triangle" transform="translate(223.500000, 330.735582) scale(1, -1) translate(-223.500000, -330.735582) ">
                    <use fill="#FFFFFF" fill-rule="evenodd" style="mix-blend-mode: color-burn;" xlink:href="#path-3"></use>
                    <use stroke="#FFFFFF" stroke-width="1" xlink:href="#path-3"></use>
                </g>
                <path d="M249.683085,89.9580681 L278.824535,109.521882 C283.366124,112.570831 285.271023,118.305285 283.456445,123.465656 L272.726083,153.981097 C271.036634,158.785619 266.498476,162.000386 261.405573,162.000386 L224.583397,162.000386 C219.490494,162.000386 214.952336,158.785619 213.262887,153.981097 L202.532525,123.465656 C200.717947,118.305285 202.622846,112.570831 207.164435,109.521882 L236.305885,89.9580681 C240.351401,87.2421523 245.637569,87.2421523 249.683085,89.9580681 Z" id="Polygon" stroke="#FFFFFF" fill="#FFFFFF" transform="translate(242.994485, 124.960758) rotate(-8.000000) translate(-242.994485, -124.960758) "></path>
                <path d="M298.466287,112.965576 L390.007957,153.692205 C395.828195,156.281613 398.61084,162.967548 396.346401,168.921749 L393.759485,175.723878 C391.996406,180.359783 387.562917,183.433324 382.603134,183.458081 L272.093845,184.009697 C266.876264,184.035741 262.239788,180.687305 260.623913,175.726179 L251.518744,147.771123 C249.842507,142.624672 251.81896,136.993086 256.343783,134.022949 L287.003486,113.89763 C290.416998,111.656969 294.735627,111.305816 298.466287,112.965576 Z" id="Polygon" stroke="#FFFFFF" fill="#FFFFFF" transform="translate(324.030234, 147.969641) rotate(18.000000) translate(-324.030234, -147.969641) "></path>
                <path d="M200.925403,80.1078773 L233.03102,102.829554 C237.34768,105.884526 239.155603,111.405179 237.482251,116.421781 L225.348641,152.797559 C223.714549,157.696462 219.129479,161.000474 213.965226,161.000474 L174.021211,161.000474 C168.856958,161.000474 164.271888,157.696462 162.637796,152.797559 L150.504186,116.421781 C148.830834,111.405179 150.638757,105.884526 154.955417,102.829554 L187.061034,80.1078773 C191.214971,77.1680674 196.771466,77.1680674 200.925403,80.1078773 Z" id="Polygon" stroke="#FFFFFF" fill="#FFFFFF" transform="translate(193.993218, 119.451747) rotate(-8.000000) translate(-193.993218, -119.451747) "></path>
                <path d="M114.559821,134.215033 L159.517628,105.475456 C165.101596,101.905868 172.522019,103.538845 176.091608,109.122812 C177.343529,111.081214 177.999746,113.361051 177.98053,115.685331 L177.584065,163.63982 C177.543213,168.581116 174.477525,172.99216 169.860414,174.752943 L108.117208,198.299355 C106.225568,199.020752 104.182161,199.251831 102.177193,198.971083 L64.2989589,193.667149 C57.7355745,192.748105 53.1599325,186.682398 54.0789764,180.119014 C54.5485818,176.765311 56.4133478,173.76615 59.213279,171.861357 L114.273376,134.403968 C114.367952,134.339627 114.463444,134.276643 114.559821,134.215033 Z" id="Polygon" stroke="#FFFFFF" fill="#FFFFFF" transform="translate(115.971244, 151.335831) rotate(-8.000000) translate(-115.971244, -151.335831) "></path>
                <path d="M242.818274,383.483436 L249.033627,397.338114 L229,392.867004 L233.783717,383.294808 C235.018171,380.82467 238.021337,379.82295 240.491475,381.057405 C241.523814,381.573318 242.3459,382.430463 242.818274,383.483436 Z" id="Triangle-3" stroke="#FFFFFF" fill="#FFFFFF" transform="translate(239.016814, 388.933502) scale(1, -1) translate(-239.016814, -388.933502) "></path>
                <path d="M380.127072,205.5 L65,205.5" id="Line" stroke="#000000" stroke-width="15" fill="#FFFFFF" stroke-linecap="square"></path>
            </g>
        </g>
    </g>
</svg>